<?xml version="1.0" encoding="UTF-8"?>
<svg width="159px" height="34px" viewBox="0 0 159 34" version="1.1" xmlns="http://www.w3.org/2000/svg" xmlns:xlink="http://www.w3.org/1999/xlink">
    <title>logo-acronis-blue</title>
    <g id="Page-1" stroke="none" stroke-width="1" fill="none" fill-rule="evenodd">
        <g id="Acronis-Banner-Macs-Lander-DESKTOP" transform="translate(-328.000000, -535.000000)" fill="#12214D" fill-rule="nonzero">
            <g id="logo-acronis-blue" transform="translate(328.000000, 535.000000)">
                <path d="M9.50124043,23.1544304 L10.8732607,19.9868354 L23.615899,19.9868354 L24.9707691,23.1544304 L9.50124043,23.1544304 Z M86.8317334,29.2658228 C84.5850502,29.2658228 82.8014238,28.5255696 81.4808543,27.0278481 C80.108834,25.564557 79.4399741,23.6881013 79.4399741,21.4156962 C79.4399741,19.1088608 80.1259843,17.1807595 81.4808543,15.6486076 C82.8357243,14.1164557 84.6193507,13.3589873 86.8317334,13.3589873 C89.0441161,13.3589873 90.8791932,14.1164557 92.3369647,15.6486076 C93.6918348,17.1118987 94.3778449,19.04 94.3778449,21.4156962 C94.3778449,23.7225316 93.6918348,25.5989873 92.3369647,27.0278481 C90.9134937,28.5083544 89.0784166,29.2658228 86.8317334,29.2658228 M131.130838,33.7589873 L135.709956,33.7589873 L135.709956,9.33063291 L131.130838,9.33063291 L131.130838,33.7589873 Z M150.459174,18.9022785 C148.675547,18.5063291 147.457879,17.9898734 146.80617,17.3356962 C146.548916,17.0774684 146.360263,16.8364557 146.274512,16.595443 C146.17161,16.3716456 146.13731,16.1134177 146.13731,15.8207595 C146.13731,15.1665823 146.463165,14.5468354 147.132025,13.961519 C147.800884,13.3762025 148.641247,13.0835443 149.687412,13.0835443 C150.699277,13.0835443 151.53964,13.3589873 152.22565,13.9098734 C152.997411,14.598481 153.391867,15.6486076 153.391867,17.0946835 L157.868083,17.0946835 C157.936684,14.6156962 157.233524,12.6703797 155.758602,11.2243038 C154.28368,9.79544304 152.25995,9.07240506 149.704563,9.07240506 C147.406429,9.07240506 145.4856,9.74379747 143.959228,11.0693671 C142.364254,12.4465823 141.575342,14.0820253 141.575342,16.0101266 C141.575342,18.1964557 142.347104,19.8491139 143.907777,20.9853165 C144.559487,21.4501266 145.314098,21.8288608 146.188761,22.1559494 C147.063424,22.483038 148.126739,22.8101266 149.344407,23.1372152 C151.385287,23.6881013 152.791608,24.2562025 153.529069,24.841519 C153.854924,25.0997468 154.060727,25.3579747 154.163629,25.6162025 C154.26653,25.8744304 154.317981,26.1670886 154.317981,26.4941772 C154.317981,27.475443 153.923525,28.284557 153.117463,28.9387342 C152.328551,29.5929114 151.299536,29.92 150.030417,29.92 C148.675547,29.92 147.543631,29.5756962 146.668968,28.8870886 C145.622802,28.1124051 145.108295,26.8901266 145.108295,25.2202532 L140.683529,25.2202532 C140.546327,27.923038 141.38669,30.0921519 143.170316,31.7103797 C144.851041,33.2425316 147.080574,34 149.841765,34 C151.076583,34 152.2428,33.8106329 153.374717,33.4146835 C154.489483,33.0187342 155.467048,32.4850633 156.32456,31.7964557 C157.164923,31.1078481 157.833783,30.2987342 158.29684,29.3518987 C158.759896,28.4050633 159,27.4237975 159,26.3736709 C159,24.1529114 158.176788,22.4313924 156.513213,21.1918987 C155.792903,20.675443 154.96969,20.2450633 154.009276,19.9007595 C153.014562,19.6081013 151.848344,19.2637975 150.459174,18.9022785 M86.8317334,8.98632911 C85.116708,8.98632911 83.5217344,9.29620253 82.0296624,9.91594937 C80.5547406,10.5356962 79.2513213,11.4136709 78.1194046,12.5498734 C77.0217884,13.6516456 76.1471254,14.9772152 75.5468666,16.5093671 C74.9294574,18.041519 74.6207529,19.676962 74.6207529,21.398481 C74.6207529,23.12 74.9294574,24.7382278 75.5468666,26.2359494 C76.1642757,27.7336709 77.0217884,29.0420253 78.1194046,30.1437975 C79.2170208,31.2455696 80.5204401,32.1235443 82.0125121,32.7260759 C83.5045842,33.3458228 85.116708,33.6556962 86.8317334,33.6556962 C88.5467587,33.6556962 90.1588825,33.3458228 91.6681048,32.7260759 C93.1773271,32.1063291 94.4807464,31.2455696 95.5783626,30.1437975 C96.6759789,29.0420253 97.5506418,27.7336709 98.1509007,26.2359494 C98.7683098,24.7382278 99.0770143,23.12 99.0770143,21.398481 C99.0770143,19.676962 98.7683098,18.041519 98.1509007,16.5093671 C97.5334915,14.9772152 96.6759789,13.6516456 95.5783626,12.5498734 C94.4464459,11.4136709 93.1258764,10.5356962 91.6338043,9.91594937 C90.1588825,9.29620253 88.563909,8.98632911 86.8317334,8.98632911 M57.8306547,24.8070886 L53.0114335,24.8070886 C52.5312264,26.201519 51.7423147,27.3205063 50.6446985,28.1296203 C49.5642326,28.9387342 48.2265128,29.3518987 46.6315392,29.3518987 C44.4191565,29.3518987 42.6526804,28.6116456 41.3321109,27.1139241 C39.9943911,25.6162025 39.3426815,23.7053165 39.3426815,21.398481 C39.3426815,18.9883544 39.9943911,17.043038 41.3149606,15.5625316 C42.6355301,14.0820253 44.4020063,13.3417722 46.6486895,13.3417722 C48.2779635,13.3417722 49.6156833,13.7377215 50.6961493,14.5124051 C51.759465,15.2870886 52.5483767,16.4232911 53.0285838,17.8865823 L57.847805,17.8865823 L57.847805,17.5422785 C57.1960954,14.9083544 55.8755258,12.8253165 53.8860964,11.2931646 C51.896667,9.76101266 49.4784813,9.0035443 46.6658397,9.0035443 C44.9851149,9.0035443 43.3901413,9.31341772 41.9152195,9.93316456 C40.4402977,10.5529114 39.1540287,11.4308861 38.0392622,12.5670886 C36.941646,13.6688608 36.0841333,14.9944304 35.4667242,16.5265823 C34.8493151,18.0587342 34.5406105,19.6941772 34.5406105,21.4156962 C34.5406105,23.1372152 34.8493151,24.755443 35.4667242,26.2531646 C36.0841333,27.7508861 36.941646,29.0592405 38.0392622,30.1610127 C39.1368784,31.2627848 40.4231474,32.1407595 41.9152195,32.7432911 C43.3901413,33.363038 44.9679646,33.6729114 46.6658397,33.6729114 C49.461331,33.6729114 51.828066,32.915443 53.7660447,31.3832911 C55.7211736,29.8511392 57.0760436,27.7681013 57.847805,25.1341772 L57.847805,24.8070886 L57.8306547,24.8070886 Z M115.935714,8.74531646 C114.152087,8.74531646 112.505663,9.08962025 111.013591,9.77822785 C109.950275,10.2602532 109.024161,10.8972152 108.23525,11.6891139 L108.046597,11.6891139 L107.806493,9.3478481 L103.673282,9.3478481 L103.673282,33.7589873 L108.2524,33.7589873 L108.2524,18.3686076 C108.2524,16.7331646 108.92126,15.4420253 110.241829,14.4607595 C111.476648,13.5827848 113.088771,13.1351899 115.112501,13.1351899 C116.793226,13.1351899 118.148096,13.5655696 119.159961,14.4263291 C120.171826,15.2870886 120.669183,16.5265823 120.669183,18.1620253 L120.669183,33.7417722 L125.248301,33.7417722 L125.248301,17.9037975 C125.248301,14.7189873 124.270737,12.3432911 122.332758,10.7767089 C121.492396,10.0881013 120.514831,9.57164557 119.417215,9.24455696 C118.302448,8.91746835 117.136231,8.74531646 115.935714,8.74531646 M66.5944343,11.6718987 L66.3543307,9.33063291 L62.2725704,9.33063291 L62.2725704,33.7589873 L66.9031388,33.7589873 L66.9031388,18.316962 C66.9031388,16.681519 67.4347967,15.4420253 68.4809621,14.5640506 C69.5271276,13.6860759 70.9162981,13.238481 72.6484737,13.238481 L73.0943803,13.238481 L73.3859346,13.2901266 L73.5231367,13.3417722 L73.5231367,8.84860759 C73.4202351,8.84860759 73.3516341,8.83139241 73.2830331,8.79696203 C73.1801316,8.79696203 73.1115306,8.77974684 73.0429296,8.74531646 L72.6484737,8.74531646 C71.7395103,8.74531646 70.8305469,8.93468354 69.9215834,9.33063291 C68.6181642,9.88151899 67.6234495,10.6734177 66.9031388,11.6718987 L66.5944343,11.6718987 L66.5944343,11.6718987 Z M17.1331032,5.71544304 L17.3732068,5.71544304 L17.5618596,6.35240506 L21.8494229,16.2683544 L12.6054363,16.2683544 L16.8929997,6.35240506 L17.1331032,5.71544304 Z M15.1436738,0 L0,33.7589873 L4.81922123,33.7589873 L7.78621508,26.924557 L26.6686442,26.924557 L29.635638,33.7589873 L34.4548592,33.7589873 L19.3283357,0 L15.1436738,0 Z" id="Shape"></path>
            </g>
        </g>
    </g>
</svg>